<svg xmlns="http://www.w3.org/2000/svg" viewBox="0 0 120 120"><defs><style>.cls-1{fill:none;}</style></defs><title>d4</title><g id="图层_2" data-name="图层 2"><g id="图层_5" data-name="图层 5"><polygon points="80.56 72.97 80.56 78.26 78.28 78.26 78.28 82.74 72.79 82.74 72.79 78.26 61.04 78.26 61.04 73.21 69.8 54.08 58.84 65.05 44.95 78.94 43.38 77.37 41.41 75.4 51.36 65.45 51.36 47.34 43.59 55.11 39.59 51.11 50.3 40.4 57.01 40.52 57.01 59.8 58.84 57.98 75.44 41.38 78.97 44.91 72.96 50.92 70.25 53.63 76.22 53.63 67.49 72.97 72.79 72.97 72.79 65.6 78.28 65.6 78.28 72.97 80.56 72.97"/><rect class="cls-1" width="120" height="120"/></g></g></svg>