<svg xmlns="http://www.w3.org/2000/svg" viewBox="0 0 120 120"><defs><style>.cls-1{fill:none;}</style></defs><title>x15</title><g id="图层_2" data-name="图层 2"><g id="图层_5" data-name="图层 5"><polygon points="53.18 80 47.23 80 47.23 47.51 39.05 55.7 34.84 51.49 46.12 40.21 53.18 40.33 53.18 80"/><circle cx="57.46" cy="76.92" r="3.08"/><path d="M65.13,79.7a8,8,0,0,1-3.4-3.59,14.94,14.94,0,0,1-1.35-5.93v0h6.27v0a5.74,5.74,0,0,0,1.07,3.48,3.47,3.47,0,0,0,2.8,1.18,3.6,3.6,0,0,0,2.86-1.17,4.75,4.75,0,0,0,1-3.27V63.82a4.81,4.81,0,0,0-1-3.21,3.3,3.3,0,0,0-2.66-1.12,3.53,3.53,0,0,0-3.64,2.87h-5.9V40.62H80v6H67.53v8.49a6.53,6.53,0,0,1,2.11-1.31,6.85,6.85,0,0,1,2.47-.47,8.48,8.48,0,0,1,4.63,1.22,7.78,7.78,0,0,1,2.94,3.58,14.34,14.34,0,0,1,1,5.65V70.4a12.24,12.24,0,0,1-1.21,5.67A8.24,8.24,0,0,1,76,79.66a11.49,11.49,0,0,1-5.5,1.24A11.08,11.08,0,0,1,65.13,79.7Z"/><rect class="cls-1" width="120" height="120"/></g></g></svg>