<svg xmlns="http://www.w3.org/2000/svg" viewBox="0 0 120 120"><defs><style>.cls-1{fill:none;}</style></defs><title>d2</title><g id="图层_2" data-name="图层 2"><g id="图层_5" data-name="图层 5"><path d="M68.27,77.44h10v5.28H61V77.78L71,64.64A7.59,7.59,0,0,0,72,62.83a4.65,4.65,0,0,0,.37-1.73v0a2.24,2.24,0,0,0-.76-1.82,3.26,3.26,0,0,0-2.16-.64,2.86,2.86,0,0,0-2.2.89,4.25,4.25,0,0,0-1,2.53v0H61.85l-3,3L45,78.94l-1.57-1.57-2-2,10-10V47.34l-7.77,7.77-4-4L50.3,40.4l6.71.12V59.8L58.84,58l16.6-16.6L79,44.91l-6,6-2.43,2.43a10.4,10.4,0,0,1,3.57.85,6.52,6.52,0,0,1,3,2.6,7.91,7.91,0,0,1,1,4.1v0a11.71,11.71,0,0,1-.69,3.93,12.43,12.43,0,0,1-1.94,3.54Z"/><rect class="cls-1" width="120" height="120"/></g></g></svg>