<svg xmlns="http://www.w3.org/2000/svg" viewBox="0 0 120 120"><defs><style>.cls-1{fill:none;}</style></defs><title>d3</title><g id="图层_2" data-name="图层 2"><g id="图层_5" data-name="图层 5"><path d="M77,69.73a7.79,7.79,0,0,1,1.15,4.38V75a8.91,8.91,0,0,1-1,4.35,6.6,6.6,0,0,1-2.93,2.74,10.37,10.37,0,0,1-4.62.94H66.93l-2.07-1a7.84,7.84,0,0,1-3.28-2.8,8.55,8.55,0,0,1-1.34-4.39h5.67a3.56,3.56,0,0,0,.53,1.53,2.64,2.64,0,0,0,1,1A3.17,3.17,0,0,0,69,77.7a3.22,3.22,0,0,0,2.41-.87,3.38,3.38,0,0,0,.85-2.46v-.68a4.13,4.13,0,0,0-.69-2.56,2.34,2.34,0,0,0-2-.9H67.11V64.94h2.46a1.86,1.86,0,0,0,1.61-.79,3.7,3.7,0,0,0,.57-2.21v-.5a3.09,3.09,0,0,0-.63-2.07,2.2,2.2,0,0,0-1.77-.73A2.42,2.42,0,0,0,68,59a3,3,0,0,0-1,1.1,5.24,5.24,0,0,0-.6,1.74H62l-3.18,3.19L45,78.94l-1.57-1.57-2-2,10-10V47.34l-7.77,7.77-4-4L50.3,40.4l6.71.12V59.8L58.84,58l16.6-16.6L79,44.91l-6,6-2.42,2.42a7.92,7.92,0,0,1,5,1.94,7.29,7.29,0,0,1,2.12,5.6v.88a5.92,5.92,0,0,1-3.93,5.77A5.15,5.15,0,0,1,77,69.73Z"/><rect class="cls-1" width="120" height="120"/></g></g></svg>