<svg xmlns="http://www.w3.org/2000/svg" viewBox="0 0 120 120"><defs><style>.cls-1{fill:none;}</style></defs><title>d8</title><g id="图层_2" data-name="图层 2"><g id="图层_5" data-name="图层 5"><path d="M78.38,70.36a7.93,7.93,0,0,0-3.25-2.91,6.86,6.86,0,0,0,2.81-2.38A5.86,5.86,0,0,0,79,61.72V61a7.49,7.49,0,0,0-1.07-4,7.15,7.15,0,0,0-3-2.69,10.18,10.18,0,0,0-4.33-.95L73,50.92l6-6-3.53-3.53L58.84,58,57,59.8V40.52L50.3,40.4,39.59,51.11l4,4,7.77-7.77V65.45l-10,10,2,2L45,78.94,61.76,62.13a5.91,5.91,0,0,0,1,2.91,7,7,0,0,0,2.76,2.41,7.71,7.71,0,0,0-3.2,2.9,7.61,7.61,0,0,0-1.2,4.1v.48a7.89,7.89,0,0,0,1.14,4.26A7.54,7.54,0,0,0,65.52,82a12.26,12.26,0,0,0,9.7,0,7.54,7.54,0,0,0,3.24-2.83,7.89,7.89,0,0,0,1.14-4.26v-.48A7.49,7.49,0,0,0,78.38,70.36ZM72,59a2.7,2.7,0,0,1,1.1,1.07,3.23,3.23,0,0,1,.39,1.61v.28a3.71,3.71,0,0,1-.39,1.73A2.8,2.8,0,0,1,72,64.83a3.53,3.53,0,0,1-3.3,0,2.71,2.71,0,0,1-1.1-1.15,3.58,3.58,0,0,1-.39-1.7v-.3a3.29,3.29,0,0,1,.39-1.62A2.6,2.6,0,0,1,68.72,59,3.77,3.77,0,0,1,72,59Zm2.09,15.15A3.62,3.62,0,0,1,73.64,76a3.19,3.19,0,0,1-1.32,1.28,4.12,4.12,0,0,1-1.95.45,4.21,4.21,0,0,1-2-.44A3.21,3.21,0,0,1,67.1,76a3.58,3.58,0,0,1-.47-1.87v-.3a3.14,3.14,0,0,1,.47-1.73A3.08,3.08,0,0,1,68.41,71a4.89,4.89,0,0,1,3.92,0,3.13,3.13,0,0,1,1.31,1.15,3.08,3.08,0,0,1,.47,1.72Z"/><rect class="cls-1" width="120" height="120"/></g></g></svg>