<svg xmlns="http://www.w3.org/2000/svg" xmlns:xlink="http://www.w3.org/1999/xlink" viewBox="0 0 120 120"><defs><style>.cls-1{fill:none;}.cls-2{clip-path:url(#clip-path);}</style><clipPath id="clip-path"><rect id="SVGID" class="cls-1" x="35.24" y="34.83" width="49.52" height="50.33"/></clipPath></defs><title>settings</title><g id="图层_2" data-name="图层 2"><g id="图层_5" data-name="图层 5"><g class="cls-2"><path d="M78.49,62.64c0-.76.25-1.52.25-2.52a7.9,7.9,0,0,0-.25-2.53l5.3-4.29A1.19,1.19,0,0,0,84,51.79L79,43a1.39,1.39,0,0,0-1.51-.26l-6.31,2.53a23.86,23.86,0,0,0-4.29-2.53l-1-6.56a1,1,0,0,0-1-1.26H54.77c-.51,0-1.26.51-1.26,1l-1,6.81a19,19,0,0,0-4.29,2.53L42.15,42.7a1.55,1.55,0,0,0-1.76.51l-5,8.83c-.25.25,0,1,.5,1.51l5.3,4c0,.76-.25,1.52-.25,2.53a7.87,7.87,0,0,0,.25,2.52l-5.3,4.29a1.19,1.19,0,0,0-.25,1.51l5,8.83a1.4,1.4,0,0,0,1.51.26L48.46,75a24.21,24.21,0,0,0,4.29,2.53l1,6.56a1.15,1.15,0,0,0,1.26,1h10.1c.5,0,1.26-.51,1.26-1l1-6.56A24.58,24.58,0,0,0,71.68,75L78,77.53A1.22,1.22,0,0,0,79.5,77l5-8.83c.26-.5.26-1.26-.25-1.51ZM59.82,69a8.84,8.84,0,1,1,8.83-8.83A8.95,8.95,0,0,1,59.82,69Z"/></g><rect class="cls-1" width="120" height="120"/></g></g></svg>