<svg xmlns="http://www.w3.org/2000/svg" viewBox="0 0 120 120"><defs><style>.cls-1{fill:none;}</style></defs><title>x05</title><g id="图层_2" data-name="图层 2"><g id="图层_5" data-name="图层 5"><circle cx="60.6" cy="76.92" r="3.08"/><path d="M39.07,78.12c-1.82-1.84-2.73-4.44-2.73-7.78V49.84q0-5,2.75-7.77t7.84-2.76q5.1,0,7.84,2.75t2.74,7.78v20.5q0,5-2.74,7.8T46.93,80.9Q41.8,80.9,39.07,78.12Zm11-4.64a5.63,5.63,0,0,0,1-3.65V50.35a5.57,5.57,0,0,0-1.05-3.63,3.81,3.81,0,0,0-3.12-1.28,3.81,3.81,0,0,0-3.14,1.28,5.63,5.63,0,0,0-1,3.63V69.83a5.63,5.63,0,0,0,1,3.65,3.83,3.83,0,0,0,3.14,1.26A3.84,3.84,0,0,0,50.07,73.48Z"/><path d="M68.27,79.7a8,8,0,0,1-3.4-3.59,14.94,14.94,0,0,1-1.36-5.93v0h6.28v0a5.67,5.67,0,0,0,1.07,3.48,3.47,3.47,0,0,0,2.8,1.18,3.6,3.6,0,0,0,2.86-1.17,4.75,4.75,0,0,0,1-3.27V63.82a4.81,4.81,0,0,0-1-3.21,3.31,3.31,0,0,0-2.66-1.12,3.54,3.54,0,0,0-3.65,2.87H64.39V40.62h18.7v6H70.67v8.49a6.53,6.53,0,0,1,2.11-1.31,6.81,6.81,0,0,1,2.47-.47,8.48,8.48,0,0,1,4.63,1.22,7.7,7.7,0,0,1,2.93,3.58,14.15,14.15,0,0,1,1,5.65V70.4a12.24,12.24,0,0,1-1.21,5.67,8.24,8.24,0,0,1-3.49,3.59,11.49,11.49,0,0,1-5.5,1.24A11.08,11.08,0,0,1,68.27,79.7Z"/><rect class="cls-1" width="120" height="120"/></g></g></svg>