<svg xmlns="http://www.w3.org/2000/svg" viewBox="0 0 120 120"><defs><style>.cls-1{fill:none;}</style></defs><title>x10</title><g id="图层_2" data-name="图层 2"><g id="图层_5" data-name="图层 5"><polygon points="53.04 80 47.09 80 47.09 47.51 38.9 55.7 34.69 51.49 45.97 40.21 53.04 40.33 53.04 80"/><circle cx="57.31" cy="76.92" r="3.08"/><path d="M63.13,78.12c-1.82-1.84-2.73-4.44-2.73-7.78V49.84q0-5,2.74-7.77C65,40.23,67.59,39.31,71,39.31s6,.92,7.84,2.75,2.75,4.42,2.75,7.78v20.5q0,5-2.75,7.8T71,80.9Q65.86,80.9,63.13,78.12Zm11-4.64a5.63,5.63,0,0,0,1-3.65V50.35a5.57,5.57,0,0,0-1-3.63A3.84,3.84,0,0,0,71,45.44a3.79,3.79,0,0,0-3.13,1.28,5.63,5.63,0,0,0-1,3.63V69.83a5.63,5.63,0,0,0,1,3.65,4.53,4.53,0,0,0,6.27,0Z"/><rect class="cls-1" width="120" height="120"/></g></g></svg>