<svg xmlns="http://www.w3.org/2000/svg" viewBox="0 0 120 120"><defs><style>.cls-1{fill:none;}</style></defs><title>x20</title><g id="图层_2" data-name="图层 2"><g id="图层_5" data-name="图层 5"><circle cx="59.9" cy="76.92" r="3.08"/><path d="M65.71,78.12C63.89,76.28,63,73.68,63,70.34V49.84q0-5,2.75-7.77c1.82-1.84,4.44-2.76,7.84-2.76s6,.92,7.84,2.75,2.74,4.42,2.74,7.78v20.5q0,5-2.74,7.8C79.58,80,77,80.9,73.57,80.9S67.53,80,65.71,78.12Zm11-4.64a5.63,5.63,0,0,0,1-3.65V50.35a5.57,5.57,0,0,0-1-3.63,4.47,4.47,0,0,0-6.26,0,5.63,5.63,0,0,0-1,3.63V69.83a5.63,5.63,0,0,0,1,3.65,4.53,4.53,0,0,0,6.27,0Z"/><path d="M35.83,74.67,46.56,57.91a22,22,0,0,0,2.1-4.35,11.5,11.5,0,0,0,.7-3.69v-.16a4.24,4.24,0,0,0-.92-3,4,4,0,0,0-5.58.29,6.58,6.58,0,0,0-1.16,3.79v.42H35.48v-.42a16.32,16.32,0,0,1,1.43-6.13,8.59,8.59,0,0,1,3.43-3.8,10.27,10.27,0,0,1,5.27-1.29,11.91,11.91,0,0,1,5.46,1.15,7.61,7.61,0,0,1,3.38,3.4,12,12,0,0,1,1.15,5.54v.14a16.2,16.2,0,0,1-.91,5.12,29.25,29.25,0,0,1-2.63,5.65L43.57,74.2H55.68v6.09H35.83Z"/><rect class="cls-1" width="120" height="120"/></g></g></svg>